<svg width="50" height="50" viewBox="0 0 50 50" fill="none" xmlns="http://www.w3.org/2000/svg">
<path d="M45.4624 0.0312805C45.4105 0.0270844 45.3667 0 45.3125 0H22.9168C19.471 0 16.6668 2.80418 16.6668 6.25V8.33321C16.6668 9.48334 17.5999 10.4168 18.75 10.4168C19.9001 10.4168 20.8332 9.48334 20.8332 8.33321V6.25C20.8332 5.10216 21.7686 4.16679 22.9168 4.16679H32.6229L31.9874 4.37927C30.3001 4.96254 29.1668 6.55212 29.1668 8.33321V39.5832H22.9168C21.7686 39.5832 20.8332 38.6478 20.8332 37.5V33.3332C20.8332 32.1835 19.9001 31.25 18.75 31.25C17.5999 31.25 16.6668 32.1835 16.6668 33.3332V37.5C16.6668 40.9458 19.471 43.75 22.9168 43.75H29.1668V45.8332C29.1668 48.1312 31.0352 50 33.3332 50C33.7791 50 34.2022 49.9355 34.6603 49.7936L47.1771 45.6207C48.8667 45.0375 50 43.4479 50 41.6668V4.16679C50 1.73759 47.9061 -0.166702 45.4624 0.0312805Z" fill="#292B5C"/>
<path d="M22.3061 19.3604L13.9729 11.0271C13.377 10.4313 12.4813 10.252 11.702 10.5751C10.9249 10.8978 10.4168 11.6585 10.4168 12.5V18.75H2.08321C0.933457 18.75 0 19.6835 0 20.8332C0 21.9833 0.933457 22.9168 2.08321 22.9168H10.4168V29.1668C10.4168 30.0083 10.9249 30.7686 11.702 31.0917C12.4813 31.4144 13.377 31.2355 13.9729 30.6396L22.3061 22.3061C23.1209 21.4916 23.1209 20.1752 22.3061 19.3604Z" fill="#292B5C"/>
</svg>
