<svg width="20" height="20" viewBox="0 0 20 20" fill="none" xmlns="http://www.w3.org/2000/svg">
<path d="M2.5 7.49992C2.5 7.05789 2.67559 6.63397 2.98816 6.32141C3.30072 6.00885 3.72464 5.83325 4.16667 5.83325H4.94167C5.21599 5.83329 5.48608 5.76562 5.72797 5.63624C5.96987 5.50686 6.17609 5.31978 6.32833 5.09159L7.005 4.07492C7.15725 3.84672 7.36347 3.65964 7.60536 3.53026C7.84726 3.40088 8.11735 3.33321 8.39167 3.33325H11.6083C11.8827 3.33321 12.1527 3.40088 12.3946 3.53026C12.6365 3.65964 12.8428 3.84672 12.995 4.07492L13.6717 5.09159C13.8239 5.31978 14.0301 5.50686 14.272 5.63624C14.5139 5.76562 14.784 5.83329 15.0583 5.83325H15.8333C16.2754 5.83325 16.6993 6.00885 17.0118 6.32141C17.3244 6.63397 17.5 7.05789 17.5 7.49992V14.9999C17.5 15.4419 17.3244 15.8659 17.0118 16.1784C16.6993 16.491 16.2754 16.6666 15.8333 16.6666H4.16667C3.72464 16.6666 3.30072 16.491 2.98816 16.1784C2.67559 15.8659 2.5 15.4419 2.5 14.9999V7.49992Z" stroke="white" stroke-width="1.4" stroke-linecap="round" stroke-linejoin="round"/>
<path d="M12.5 10.8333C12.5 11.4963 12.2366 12.1322 11.7678 12.601C11.2989 13.0699 10.663 13.3333 10 13.3333C9.33696 13.3333 8.70107 13.0699 8.23223 12.601C7.76339 12.1322 7.5 11.4963 7.5 10.8333C7.5 10.1702 7.76339 9.53433 8.23223 9.06548C8.70107 8.59664 9.33696 8.33325 10 8.33325C10.663 8.33325 11.2989 8.59664 11.7678 9.06548C12.2366 9.53433 12.5 10.1702 12.5 10.8333V10.8333Z" stroke="white" stroke-width="2" stroke-linecap="round" stroke-linejoin="round"/>
</svg>
