<svg width="20" height="20" viewBox="0 0 20 20" fill="none" xmlns="http://www.w3.org/2000/svg">
<path d="M3.33337 13.3333L7.15504 9.51158C7.46759 9.19913 7.89143 9.02361 8.33337 9.02361C8.77531 9.02361 9.19916 9.19913 9.51171 9.51158L13.3334 13.3333M11.6667 11.6666L12.9884 10.3449C13.3009 10.0325 13.7248 9.85694 14.1667 9.85694C14.6086 9.85694 15.0325 10.0325 15.345 10.3449L16.6667 11.6666M11.6667 6.66659H11.675M5.00004 16.6666H15C15.4421 16.6666 15.866 16.491 16.1786 16.1784C16.4911 15.8659 16.6667 15.4419 16.6667 14.9999V4.99992C16.6667 4.55789 16.4911 4.13397 16.1786 3.82141C15.866 3.50885 15.4421 3.33325 15 3.33325H5.00004C4.55801 3.33325 4.13409 3.50885 3.82153 3.82141C3.50897 4.13397 3.33337 4.55789 3.33337 4.99992V14.9999C3.33337 15.4419 3.50897 15.8659 3.82153 16.1784C4.13409 16.491 4.55801 16.6666 5.00004 16.6666Z" stroke="white" stroke-width="1.4" stroke-linecap="round" stroke-linejoin="round"/>
</svg>
