<svg width="20" height="20" viewBox="0 0 20 20" fill="none" xmlns="http://www.w3.org/2000/svg">
<path d="M2.5 6.66666L9.075 11.05C9.34888 11.2327 9.67075 11.3302 10 11.3302C10.3292 11.3302 10.6511 11.2327 10.925 11.05L17.5 6.66666M4.16667 15.8333H15.8333C16.2754 15.8333 16.6993 15.6577 17.0118 15.3452C17.3244 15.0326 17.5 14.6087 17.5 14.1667V5.83332C17.5 5.3913 17.3244 4.96737 17.0118 4.65481C16.6993 4.34225 16.2754 4.16666 15.8333 4.16666H4.16667C3.72464 4.16666 3.30072 4.34225 2.98816 4.65481C2.67559 4.96737 2.5 5.3913 2.5 5.83332V14.1667C2.5 14.6087 2.67559 15.0326 2.98816 15.3452C3.30072 15.6577 3.72464 15.8333 4.16667 15.8333Z" stroke="#ECEBED" stroke-width="1.4" stroke-linecap="round" stroke-linejoin="round"/>
</svg>
